<svg width="30" height="40" viewBox="0 0 30 40" xmlns="http://www.w3.org/2000/svg">
  <!-- Teardrop background (white) -->
  <path d="M15 0 C7 0 0 7 0 15 C0 25 15 40 15 40 C15 40 30 25 30 15 C30 7 23 0 15 0 Z" fill="#ffffff"/>
  <!-- Fuel icon (gray #888) -->
  <g transform="translate(7.5,7.5) scale(1)">
    <path d="m14 6v5.5c0 .2761-.2239.5-.5.5s-.5-.2239-.5-.5v-2c0-.8284-.6716-1.5-1.5-1.5h-1.5v-6c0-.5523-.4477-1-1-1h-6c-.5523 0-1 .4477-1 1v11c0 .5523.4477 1 1 1h6c.5523 0 1-.4477 1-1v-4h1.5c.2761 0 .5.2239.5.5v2c0 .8284.6716 1.5 1.5 1.5s1.5-.6716 1.5-1.5v-6.5c0-.5523-.4477-1-1-1v-1.51c-.0054-.2722-.2277-.4901-.5-.49-.2816.0047-.5062.2367-.5015.5184.0002.0105.0007.0211.0015.0316v2.45c0 .5523.4477 1 1 1s1-.4477 1-1-.4477-1-1-1zm-5 .5c0 .2761-.2239.5-.5.5h-5c-.2761 0-.5-.2239-.5-.5v-3c0-.2761.2239-.5.5-.5h5c.2761 0 .5.2239.5.5z" fill="#888888"/>
  </g>
</svg>